<svg width="570" height="575" viewBox="0 0 570 575" fill="none" xmlns="http://www.w3.org/2000/svg">
<path d="M265.584 46.7341C284.189 -19.1531 379.241 -13.9969 390.609 53.5163C391.202 57.0369 391.5 60.6015 391.5 64.1716V173.062C391.5 184.66 382.098 194.062 370.5 194.062C358.902 194.062 349.5 184.66 349.5 173.062V64.1716C349.5 62.9384 349.397 61.7068 349.192 60.4909C345.265 37.169 312.43 35.3873 306.003 58.1472L305.354 60.445C304.788 62.4522 304.5 64.5282 304.5 66.614V257.062H306C317.598 257.062 327 266.464 327 278.062C327 289.66 317.598 299.062 306 299.062H304.5V509.938C304.5 519.338 302.445 528.624 298.48 537.146C275.347 586.869 204.653 586.869 181.52 537.146C177.555 528.624 175.5 519.338 175.5 509.938V373.062C175.5 361.464 184.902 352.062 196.5 352.062C208.098 352.062 217.5 361.464 217.5 373.062V509.938C217.5 513.217 218.217 516.457 219.6 519.429C227.669 536.774 252.331 536.774 260.4 519.429C261.783 516.457 262.5 513.217 262.5 509.938V299.062H261C249.402 299.062 240 289.66 240 278.062C240 266.464 249.402 257.062 261 257.062H262.5V66.614C262.5 60.6691 263.319 54.7521 264.935 49.0309L265.584 46.7341ZM370.5 212.062C382.098 212.062 391.5 221.464 391.5 233.062V426.062C391.5 437.66 382.098 447.061 370.5 447.061C358.902 447.061 349.5 437.659 349.5 426.061V233.062C349.5 221.464 358.902 212.062 370.5 212.062ZM106 165.062C117.598 165.062 127 174.464 127 186.062V365.062C127 376.66 117.598 386.062 106 386.062C94.4021 386.062 85.0002 376.66 85 365.062V186.062C85 174.464 94.402 165.062 106 165.062ZM460.5 173.562C472.098 173.562 481.5 182.964 481.5 194.562V365.062C481.5 376.66 472.098 386.062 460.5 386.062C448.902 386.062 439.5 376.66 439.5 365.062V194.562C439.5 182.964 448.902 173.562 460.5 173.562ZM21 200.562C32.598 200.562 42 209.964 42 221.562V334.562C41.9998 346.16 32.5979 355.562 21 355.562C9.40212 355.562 0.000164938 346.16 0 334.562V221.562C0 209.964 9.40202 200.562 21 200.562ZM549 200.562C560.598 200.562 570 209.964 570 221.562V334.562C570 346.16 560.598 355.562 549 355.562C537.402 355.562 528 346.16 528 334.562V221.562C528 209.964 537.402 200.562 549 200.562ZM196.444 105.562C208.042 105.531 217.469 114.908 217.5 126.506L218 313.507C218.031 325.104 208.653 334.531 197.056 334.562C185.458 334.593 176.031 325.215 176 313.618L175.5 126.618C175.469 115.02 184.846 105.593 196.444 105.562Z" fill="black"/>
</svg>
